<?xml version="1.0" standalone="no"?>
<!DOCTYPE svg PUBLIC "-//W3C//DTD SVG 1.1//EN" "http://www.w3.org/Graphics/SVG/1.1/DTD/svg11.dtd">
<svg width="508px" height="491px" version="1.1" xmlns="http://www.w3.org/2000/svg" xmlns:xlink="http://www.w3.org/1999/xlink" xml:space="preserve" style="fill-rule:evenodd;clip-rule:evenodd;stroke-linejoin:round;stroke-miterlimit:1.41421;">
    <g>
        <g id="Layer1">
            <g>
                <path d="M254.167,10.4681C120.904,10.4681 12.842,118.506 12.842,251.793C12.842,358.412 81.9889,448.871 177.875,480.781C189.935,483.015 194.363,475.546 194.363,469.172C194.363,463.421 194.139,444.407 194.035,424.242C126.899,438.841 112.732,395.769 112.732,395.769C101.754,367.879 85.9371,360.458 85.9371,360.458C64.0418,345.48 87.5876,345.788 87.5876,345.788C111.821,347.491 124.581,370.661 124.581,370.661C146.104,407.55 181.036,396.884 194.807,390.718C196.977,375.125 203.227,364.475 210.128,358.448C156.527,352.35 100.18,331.654 100.18,239.185C100.18,212.841 109.607,191.31 125.044,174.41C122.539,168.331 114.278,143.786 127.386,110.546C127.386,110.546 147.651,104.064 193.764,135.286C213.013,129.94 233.658,127.258 254.167,127.162C274.675,127.258 295.336,129.94 314.622,135.286C360.682,104.064 380.919,110.546 380.919,110.546C394.055,143.786 385.795,168.331 383.289,174.41C398.762,191.31 408.122,212.841 408.122,239.185C408.122,331.877 351.667,352.282 297.929,358.256C306.585,365.745 314.298,380.432 314.298,402.946C314.298,435.236 314.022,461.223 314.022,469.172C314.022,475.598 318.362,483.119 330.595,480.753C426.432,448.807 495.491,358.38 495.491,251.793C495.491,118.506 387.445,10.4681 254.167,10.4681" style="fill:white;"/>
            </g>
            <g>
                <path d="M104.245,356.954C103.714,358.157 101.828,358.517 100.109,357.694C98.355,356.903 97.376,355.268 97.9434,354.065C98.4629,352.834 100.349,352.491 102.1,353.314C103.85,354.101 104.849,355.752 104.245,356.954" style="fill:white;fill-rule:nonzero;"/>
            </g>
            <g>
                <path d="M114.021,367.858C112.871,368.925 110.617,368.43 109.094,366.743C107.512,365.061 107.22,362.807 108.387,361.728C109.574,360.661 111.756,361.161 113.334,362.843C114.917,364.545 115.224,366.775 114.021,367.858" style="fill:white;fill-rule:nonzero;"/>
            </g>
            <g>
                <path d="M123.536,381.755C122.058,382.786 119.636,381.823 118.141,379.677C116.663,377.527 116.663,374.954 118.177,373.922C119.672,372.891 122.058,373.823 123.572,375.949C125.047,378.131 125.047,380.704 123.536,381.755" style="fill:white;fill-rule:nonzero;"/>
            </g>
            <g>
                <path d="M136.571,395.184C135.248,396.643 132.431,396.251 130.368,394.257C128.258,392.315 127.671,389.553 128.994,388.095C130.337,386.632 133.17,387.044 135.248,389.018C137.342,390.96 137.977,393.741 136.571,395.184" style="fill:white;fill-rule:nonzero;"/>
            </g>
            <g>
                <path d="M154.554,402.981C153.966,404.871 151.257,405.727 148.523,404.923C145.794,404.096 144.008,401.886 144.559,399.976C145.127,398.074 147.852,397.179 150.605,398.038C153.331,398.861 155.121,401.059 154.554,402.981" style="fill:white;fill-rule:nonzero;"/>
            </g>
            <g>
                <path d="M174.305,404.425C174.373,406.415 172.055,408.066 169.186,408.102C166.3,408.166 163.962,406.555 163.93,404.597C163.93,402.587 166.2,400.957 169.082,400.905C171.951,400.849 174.305,402.451 174.305,404.425" style="fill:white;fill-rule:nonzero;"/>
            </g>
            <g>
                <path d="M192.682,401.299C193.025,403.237 191.031,405.231 188.182,405.763C185.381,406.278 182.787,405.076 182.431,403.153C182.084,401.163 184.11,399.169 186.911,398.654C189.765,398.158 192.318,399.325 192.682,401.299" style="fill:white;fill-rule:nonzero;"/>
            </g>
        </g>
    </g>
</svg>
