<?xml version="1.0" standalone="no"?>
<!DOCTYPE svg PUBLIC "-//W3C//DTD SVG 1.1//EN" "http://www.w3.org/Graphics/SVG/1.1/DTD/svg11.dtd">
<svg width="508px" height="491px" version="1.1" xmlns="http://www.w3.org/2000/svg" xmlns:xlink="http://www.w3.org/1999/xlink" xml:space="preserve" style="fill-rule:evenodd;clip-rule:evenodd;stroke-linejoin:round;stroke-miterlimit:1.41421;">
    <g>
        <g id="Layer1">
            <g>
                <path d="M14.6239,39.3073C14.6239,20.2385 30.4742,4.77085 50.0274,4.77085L458.306,4.77085C477.859,4.77085 493.709,20.2385 493.709,39.3073L493.709,452.359C493.709,471.435 477.859,486.896 458.306,486.896L50.0274,486.896C30.4742,486.896 14.6239,471.435 14.6239,452.359ZM199.891,408.359L272.25,408.359L272.25,286.783C272.25,280.276 272.721,273.776 274.631,269.125C279.863,256.125 291.769,242.661 311.759,242.661C337.943,242.661 348.417,262.625 348.417,291.892L348.417,408.359L420.773,408.359L420.773,283.53C420.773,216.66 385.073,185.544 337.465,185.544C299.079,185.544 281.868,206.642 272.252,221.476L272.252,222.226L271.769,222.226C271.928,221.978 272.089,221.728 272.252,221.476L272.252,190.653L199.891,190.653C200.84,211.052 199.894,407.804 199.891,408.359ZM159.85,408.359L159.85,190.653L87.488,190.653L87.488,408.359ZM123.668,160.929C148.902,160.929 164.608,144.211 164.608,123.32C164.138,101.957 148.902,85.7037 124.147,85.7037C99.3944,85.7037 83.2104,101.957 83.2104,123.32C83.2104,144.211 98.9131,160.929 123.197,160.929Z" style="fill:white;"/>
            </g>
        </g>
    </g>
</svg>
