<?xml version="1.0" encoding="UTF-8" standalone="no"?>
<!DOCTYPE svg PUBLIC "-//W3C//DTD SVG 1.1//EN" "http://www.w3.org/Graphics/SVG/1.1/DTD/svg11.dtd">
<svg width="100%" height="100%" viewBox="0 0 508 491" version="1.1" xmlns="http://www.w3.org/2000/svg" xmlns:xlink="http://www.w3.org/1999/xlink" xml:space="preserve" style="fill-rule:evenodd;clip-rule:evenodd;stroke-linejoin:round;stroke-miterlimit:1.41421;">
    <g id="Layer1">
        <path d="M104.245,356.954C103.714,358.157 101.828,358.517 100.109,357.694C98.355,356.903 97.376,355.268 97.943,354.065C98.463,352.834 100.349,352.491 102.1,353.314C103.85,354.101 104.849,355.752 104.245,356.954" style="fill:white;fill-rule:nonzero;"/>
        <path d="M114.021,367.858C112.871,368.925 110.617,368.43 109.094,366.743C107.512,365.061 107.22,362.807 108.387,361.728C109.574,360.661 111.756,361.161 113.334,362.843C114.917,364.545 115.224,366.775 114.021,367.858" style="fill:white;fill-rule:nonzero;"/>
        <path d="M123.536,381.755C122.058,382.786 119.636,381.823 118.141,379.677C116.663,377.527 116.663,374.954 118.177,373.922C119.672,372.891 122.058,373.823 123.572,375.949C125.047,378.131 125.047,380.704 123.536,381.755" style="fill:white;fill-rule:nonzero;"/>
        <path d="M136.571,395.184C135.248,396.643 132.431,396.251 130.368,394.257C128.258,392.315 127.671,389.553 128.994,388.095C130.337,386.632 133.17,387.044 135.248,389.018C137.342,390.96 137.977,393.741 136.571,395.184" style="fill:white;fill-rule:nonzero;"/>
        <path d="M154.554,402.981C153.966,404.871 151.257,405.727 148.523,404.923C145.794,404.096 144.008,401.886 144.559,399.976C145.127,398.074 147.852,397.179 150.605,398.038C153.331,398.861 155.121,401.059 154.554,402.981" style="fill:white;fill-rule:nonzero;"/>
        <path d="M174.305,404.425C174.373,406.415 172.055,408.066 169.186,408.102C166.3,408.166 163.962,406.555 163.93,404.597C163.93,402.587 166.2,400.957 169.082,400.905C171.951,400.849 174.305,402.451 174.305,404.425" style="fill:white;fill-rule:nonzero;"/>
        <path d="M192.682,401.299C193.025,403.237 191.031,405.231 188.182,405.763C185.381,406.278 182.787,405.076 182.431,403.153C182.084,401.163 184.11,399.169 186.911,398.654C189.765,398.158 192.318,399.325 192.682,401.299" style="fill:white;fill-rule:nonzero;"/>
        <g transform="matrix(1.10242,0,0,1.10242,-26.0142,-25.1437)">
            <g transform="matrix(4.16667,0,0,4.16667,-1911.97,-3006.2)">
                <path d="M571.839,752.327C571.819,752.311 571.803,752.29 571.778,752.278L571.742,752.26L540.172,736.475C539.959,736.368 539.735,736.296 539.508,736.238C539.223,736.165 538.932,736.12 538.64,736.12C537.431,736.12 536.228,736.727 535.576,737.785L517.401,767.321L540.21,804.385L571.936,752.831C572.041,752.659 571.991,752.447 571.839,752.327Z" style="fill:white;fill-rule:nonzero;stroke-width:0.22px;stroke:rgb(255,239,239);"/>
            </g>
            <g transform="matrix(4.16667,0,0,4.16667,-1911.97,-3006.2)">
                <path d="M507.39,760.593L507.39,794.214L537.274,809.156L507.39,760.593Z" style="fill:white;fill-rule:nonzero;stroke-width:0.22px;stroke:rgb(255,239,239);"/>
            </g>
            <g transform="matrix(4.16667,0,0,4.16667,-1911.97,-3006.2)">
                <path d="M541.764,811.401L566.363,823.7C569.564,825.301 572.159,824.18 572.159,821.198L572.159,762.009L541.764,811.401Z" style="fill:white;fill-rule:nonzero;stroke-width:0.22px;stroke:rgb(255,239,239);"/>
            </g>
            <g transform="matrix(4.16667,0,0,4.16667,-1911.97,-3006.2)">
                <path d="M502.202,752.375L471.369,736.958C470.812,736.68 470.282,736.548 469.802,736.548C468.452,736.548 467.505,737.593 467.505,739.346L467.505,805.916C467.505,807.698 468.809,809.808 470.403,810.605L497.56,824.183C498.256,824.531 498.919,824.696 499.518,824.696C501.206,824.696 502.39,823.39 502.39,821.198L502.39,752.678C502.39,752.55 502.317,752.432 502.202,752.375Z" style="fill:white;fill-rule:nonzero;stroke-width:0.22px;stroke:rgb(255,239,239);"/>
            </g>
        </g>
    </g>
</svg>
