<?xml version="1.0" standalone="no"?>
<!DOCTYPE svg PUBLIC "-//W3C//DTD SVG 1.1//EN" "http://www.w3.org/Graphics/SVG/1.1/DTD/svg11.dtd">
<svg width="508px" height="491px" version="1.1" xmlns="http://www.w3.org/2000/svg" xmlns:xlink="http://www.w3.org/1999/xlink" xml:space="preserve" style="fill-rule:evenodd;clip-rule:evenodd;stroke-linejoin:round;stroke-miterlimit:1.41421;">
    <g>
        <g id="Layer1">
            <g>
                <path d="M68.2199,483.01L68.2199,285.205L104.271,285.679L102.848,444.588L340.499,444.588L340.499,286.153L377.973,286.153L377.973,483.01ZM126.565,379.127L312.512,379.127L312.512,418.498L126.565,418.498ZM127.04,348.294L130.835,307.974L317.256,325.999L313.461,366.319ZM137.001,266.231L147.911,227.334L328.166,278.089L316.781,316.986ZM170.68,170.885L191.552,136.258L351.884,233.026L330.538,267.654ZM249.897,73.6428L282.628,49.9251L391.729,202.193L358.525,225.91ZM369.435,15.2973L409.28,8.65633L440.113,193.18L400.268,199.821Z" style="fill:white;fill-rule:nonzero;"/>
            </g>
        </g>
    </g>
</svg>
